# xmcd
#
# Track frame offsets: 
#        150
#        16623
#        43510
#        60968
#        86600
#        131750
#        164678
#        185725
#        204580
#        221695
#
# Disc length: 3478 seconds
#
# Revision: 1
# Processed by: cddbd v1.5.2PL0 Copyright (c) Steve Scherf et al.
# Submitted via: ExactAudioCopy v1.0b3
#
DISCID=880d940a
DTITLE=Stan West - My Blues
DYEAR=1995
DGENRE=Blues
TTITLE0=01 Get Outta Dodge
TTITLE1=02 Blue Heart Disease
TTITLE2=03 So Sad, So Sad (For Steve Ray)
TTITLE3=04 I Just Can't Take It No More
TTITLE4=05 Delta King
TTITLE5=06 Medfly Blues
TTITLE6=07 Overnight Bluesman
TTITLE7=08 Crazy, Crazy, Crazy
TTITLE8=09 Bullet Hole
TTITLE9=10 "Big Bone" (For Mr. Norris)
EXTD=
EXTT0=
EXTT1=
EXTT2=
EXTT3=
EXTT4=
EXTT5=
EXTT6=
EXTT7=
EXTT8=
EXTT9=
PLAYORDER=
